<svg width="38" height="38" viewBox="0 0 38 38" fill="none" xmlns="http://www.w3.org/2000/svg">
<path d="M36.8595 6.33358H34.0728V4.94025C34.0728 4.77136 34.0095 4.62358 33.8828 4.49691C33.7561 4.37025 33.6084 4.30692 33.4395 4.30692C30.6528 4.30692 28.3728 4.43358 26.5995 4.68691C25.1639 4.8558 23.5173 5.19358 21.6595 5.70025V5.57358C21.6595 4.81358 21.4061 4.18025 20.8995 3.67358C20.3928 3.16691 19.7595 2.91358 18.9995 2.91358C18.2395 2.91358 17.6061 3.16691 17.0995 3.67358C16.5928 4.18025 16.3395 4.81358 16.3395 5.57358V5.70025C14.4817 5.19358 12.835 4.8558 11.3995 4.68691C9.62615 4.43358 7.34615 4.30692 4.55948 4.30692C4.39059 4.30692 4.24281 4.37025 4.11615 4.49691C3.98948 4.62358 3.92615 4.77136 3.92615 4.94025V6.33358H1.13948C0.97059 6.33358 0.843924 6.39691 0.759479 6.52358C0.675035 6.65025 0.632812 6.79803 0.632812 6.96692V32.5536C0.632812 32.7225 0.675035 32.8702 0.759479 32.9969C0.843924 33.1236 0.97059 33.1869 1.13948 33.1869H15.8328C15.8328 33.778 16.0228 34.2425 16.4028 34.5802C16.7828 34.918 17.2261 35.0869 17.7328 35.0869H20.2661C20.8573 35.0869 21.3217 34.918 21.6595 34.5802C21.9973 34.2425 22.1661 33.778 22.1661 33.1869H36.8595C37.0284 33.1869 37.155 33.1236 37.2395 32.9969C37.3239 32.8702 37.3661 32.7225 37.3661 32.5536V6.96692C37.3661 6.79803 37.3239 6.65025 37.2395 6.52358C37.155 6.39691 37.0284 6.33358 36.8595 6.33358ZM32.9328 5.44691V29.1336C27.1906 29.1336 22.7573 29.8936 19.6328 31.4136V23.5602H31.1595C31.4128 23.5602 31.5817 23.4969 31.6661 23.3702C31.7506 23.2436 31.7928 23.0958 31.7928 22.9269C31.7084 21.998 31.4128 21.1958 30.9061 20.5202C30.3995 19.8447 29.7661 19.338 29.0061 19.0002C29.5128 18.4936 29.7661 17.8814 29.7661 17.1636C29.7661 16.4458 29.5128 15.8125 29.0061 15.2636C28.4995 14.7147 27.8661 14.4402 27.1061 14.4402L26.5995 14.5669C26.0928 13.9758 25.5017 13.5536 24.8261 13.3002C25.4173 12.7091 25.7128 12.0547 25.7128 11.3369C25.7128 10.6191 25.4384 9.9858 24.8895 9.43691C24.3406 8.88803 23.6861 8.61358 22.9261 8.61358L22.5461 8.74025C22.1239 8.14914 21.575 7.72691 20.8995 7.47358L21.2795 6.96692C23.3061 6.46025 24.9528 6.08025 26.2195 5.82691C27.9928 5.65803 30.2306 5.53136 32.9328 5.44691ZM14.6928 21.0269C14.1861 20.098 13.4684 19.4225 12.5395 19.0002C12.8773 18.6625 13.0884 18.2402 13.1728 17.7336H16.2128C16.2973 18.2402 16.5506 18.6625 16.9728 19.0002C15.9595 19.4225 15.1995 20.098 14.6928 21.0269ZM9.11948 17.1002C9.11948 16.678 9.26726 16.3402 9.56281 16.0869C9.85837 15.8336 10.2173 15.7069 10.6395 15.7069C11.0617 15.7069 11.4206 15.8336 11.7161 16.0869C12.0117 16.3402 12.1595 16.678 12.1595 17.1002C12.1595 17.5225 12.0117 17.8814 11.7161 18.1769C11.4206 18.4725 11.0617 18.6202 10.6395 18.6202C10.2173 18.6202 9.85837 18.4725 9.56281 18.1769C9.26726 17.8814 9.11948 17.5225 9.11948 17.1002ZM13.1728 11.4002C13.1728 10.978 13.3206 10.6191 13.6161 10.3236C13.9117 10.028 14.2706 9.88025 14.6928 9.88025C15.115 9.88025 15.4739 10.028 15.7695 10.3236C16.065 10.6191 16.2128 10.978 16.2128 11.4002C16.2128 11.8225 16.065 12.1602 15.7695 12.4136C15.4739 12.6669 15.115 12.7936 14.6928 12.7936C14.2706 12.7936 13.9117 12.6669 13.6161 12.4136C13.3206 12.1602 13.1728 11.8225 13.1728 11.4002ZM18.9995 8.23358C19.9284 8.23358 20.7306 8.52914 21.4061 9.12025C20.815 9.54247 20.4773 10.0914 20.3928 10.7669H17.3528C17.1839 10.1758 16.8884 9.66914 16.4661 9.24691C17.1417 8.57136 17.9861 8.23358 18.9995 8.23358ZM22.9261 21.0269C22.4195 20.098 21.7017 19.4225 20.7728 19.0002C21.1106 18.6625 21.3639 18.2402 21.5328 17.7336H24.4461C24.615 18.2402 24.8684 18.6625 25.2061 19.0002C24.1928 19.4225 23.4328 20.098 22.9261 21.0269ZM18.8728 18.6202C18.4506 18.6202 18.0917 18.4725 17.7961 18.1769C17.5006 17.8814 17.3528 17.5225 17.3528 17.1002C17.3528 16.678 17.5006 16.3402 17.7961 16.0869C18.0917 15.8336 18.4506 15.7069 18.8728 15.7069C19.295 15.7069 19.6539 15.8336 19.9495 16.0869C20.245 16.3402 20.3928 16.678 20.3928 17.1002C20.3928 17.5225 20.245 17.8814 19.9495 18.1769C19.6539 18.4725 19.295 18.6202 18.8728 18.6202ZM16.5928 13.3002C17.015 12.878 17.2684 12.4136 17.3528 11.9069H18.3661V14.4402V14.5669C17.8595 13.9758 17.2684 13.5536 16.5928 13.3002ZM20.3928 11.9069C20.4773 12.4136 20.6884 12.878 21.0261 13.3002C20.5195 13.5536 20.055 13.8914 19.6328 14.3136V11.9069H20.3928ZM27.1061 19.8869C27.8661 19.8869 28.5628 20.1191 29.1961 20.5836C29.8295 21.048 30.2728 21.618 30.5261 22.2936H23.6861C23.9395 21.618 24.3828 21.048 25.0161 20.5836C25.6495 20.1191 26.3461 19.8869 27.1061 19.8869ZM27.1061 18.6202C26.6839 18.6202 26.325 18.4725 26.0295 18.1769C25.7339 17.8814 25.5861 17.5225 25.5861 17.1002C25.5861 16.678 25.7339 16.3402 26.0295 16.0869C26.325 15.8336 26.6839 15.7069 27.1061 15.7069C27.5284 15.7069 27.8873 15.8336 28.1828 16.0869C28.4784 16.3402 28.6261 16.678 28.6261 17.1002C28.6261 17.5225 28.4784 17.8814 28.1828 18.1769C27.8873 18.4725 27.5284 18.6202 27.1061 18.6202ZM24.4461 16.5936H21.5328C21.3639 15.918 21.0261 15.4114 20.5195 15.0736C21.195 14.398 22.0184 14.0602 22.9895 14.0602C23.9606 14.0602 24.7839 14.398 25.4595 15.0736C24.9528 15.4114 24.615 15.918 24.4461 16.5936ZM22.9261 12.7936C22.5039 12.7936 22.145 12.6669 21.8495 12.4136C21.5539 12.1602 21.4061 11.8225 21.4061 11.4002C21.4061 10.978 21.5539 10.6191 21.8495 10.3236C22.145 10.028 22.5039 9.88025 22.9261 9.88025C23.3484 9.88025 23.7073 10.028 24.0028 10.3236C24.2984 10.6191 24.4461 10.978 24.4461 11.4002C24.4461 11.8225 24.2984 12.1602 24.0028 12.4136C23.7073 12.6669 23.3484 12.7936 22.9261 12.7936ZM17.2261 15.0736C16.7195 15.4114 16.3817 15.918 16.2128 16.5936H13.1728C13.0884 15.918 12.7928 15.4114 12.2861 15.0736C12.9617 14.398 13.785 14.0602 14.7561 14.0602C15.7273 14.0602 16.5506 14.398 17.2261 15.0736ZM10.6395 19.8869C11.3995 19.8869 12.0961 20.1191 12.7295 20.5836C13.3628 21.048 13.8061 21.618 14.0595 22.2936H7.21948C7.47281 21.618 7.89503 21.048 8.48615 20.5836C9.07726 20.1191 9.79503 19.8869 10.6395 19.8869ZM18.8728 19.8869C19.6328 19.8869 20.3295 20.1191 20.9628 20.5836C21.5961 21.048 22.0395 21.618 22.2928 22.2936H15.4528C15.7061 21.618 16.1284 21.048 16.7195 20.5836C17.3106 20.1191 18.0284 19.8869 18.8728 19.8869ZM18.9995 4.05358C19.4217 4.05358 19.7806 4.20136 20.0761 4.49691C20.3717 4.79247 20.5195 5.15136 20.5195 5.57358C20.5195 5.9958 20.3717 6.35469 20.0761 6.65025C19.7806 6.9458 19.4217 7.09358 18.9995 7.09358C18.5773 7.09358 18.2184 6.9458 17.9228 6.65025C17.6273 6.35469 17.4795 5.9958 17.4795 5.57358C17.4795 5.15136 17.6273 4.79247 17.9228 4.49691C18.2184 4.20136 18.5773 4.05358 18.9995 4.05358ZM5.06615 5.44691C7.76837 5.53136 10.0061 5.65803 11.7795 5.82691C13.0461 6.08025 14.6928 6.46025 16.7195 6.96692L17.0995 7.47358C16.4239 7.72691 15.8328 8.14914 15.3261 8.74025C15.1573 8.6558 14.9461 8.61358 14.6928 8.61358C13.9328 8.61358 13.2995 8.88803 12.7928 9.43691C12.2861 9.9858 12.0328 10.6191 12.0328 11.3369C12.0328 12.0547 12.2861 12.7091 12.7928 13.3002C12.1173 13.5536 11.5684 13.9758 11.1461 14.5669L10.6395 14.4402C9.87948 14.4402 9.22503 14.7147 8.67615 15.2636C8.12726 15.8125 7.85281 16.4458 7.85281 17.1636C7.85281 17.8814 8.14837 18.4936 8.73948 19.0002C7.97948 19.338 7.34615 19.8447 6.83948 20.5202C6.33281 21.1958 5.99503 21.998 5.82615 22.9269C5.82615 23.0958 5.88948 23.2436 6.01615 23.3702C6.14281 23.4969 6.29059 23.5602 6.45948 23.5602H18.3661V31.4136C15.2417 29.8936 10.8084 29.1336 5.06615 29.1336V5.44691ZM36.2261 32.0469H21.6595C21.4906 32.0469 21.3428 32.1102 21.2161 32.2369C21.0895 32.3636 21.0261 32.4691 21.0261 32.5536V33.1869C21.0261 33.4402 20.9628 33.6302 20.8361 33.7569C20.7095 33.8836 20.5195 33.9469 20.2661 33.9469H17.7328C17.5639 33.9469 17.395 33.8836 17.2261 33.7569C17.0573 33.6302 16.9728 33.4402 16.9728 33.1869V32.5536C16.9728 32.4691 16.9095 32.3636 16.7828 32.2369C16.6561 32.1102 16.5506 32.0469 16.4661 32.0469H1.77281V7.60025H3.92615V29.6402C3.92615 29.8091 3.98948 29.9569 4.11615 30.0836C4.24281 30.2102 4.39059 30.2736 4.55948 30.2736C10.8928 30.2736 15.6217 31.1602 18.7461 32.9336C18.8306 33.018 18.915 33.0602 18.9995 33.0602C19.0839 33.0602 19.1684 33.018 19.2528 32.9336C22.3773 31.1602 27.1061 30.2736 33.4395 30.2736C33.6084 30.2736 33.7561 30.2102 33.8828 30.0836C34.0095 29.9569 34.0728 29.8091 34.0728 29.6402V7.60025H36.2261V32.0469ZM31.0328 25.5869C31.0328 25.7558 30.9695 25.9036 30.8428 26.0302C30.7161 26.1569 30.5684 26.2202 30.3995 26.2202C27.1906 26.3891 24.4884 26.8114 22.2928 27.4869H22.0395C21.7861 27.4869 21.6173 27.3814 21.5328 27.1702C21.4484 26.9591 21.4484 26.7902 21.5328 26.6636C21.6173 26.5369 21.7439 26.4314 21.9128 26.3469C24.2773 25.6714 27.1061 25.2491 30.3995 25.0802C30.5684 25.0802 30.695 25.1225 30.7795 25.2069C30.8639 25.2914 30.9484 25.418 31.0328 25.5869ZM16.4661 27.1069C16.3817 27.3602 16.2128 27.4869 15.9595 27.4869H15.7061C13.5106 26.8114 10.8084 26.3891 7.59948 26.2202C7.43059 26.2202 7.28281 26.1569 7.15615 26.0302C7.02948 25.9036 6.98726 25.7558 7.02948 25.5869C7.0717 25.418 7.13503 25.2914 7.21948 25.2069C7.30392 25.1225 7.43059 25.0802 7.59948 25.0802C10.8928 25.2491 13.7217 25.6714 16.0861 26.3469C16.255 26.4314 16.3817 26.5369 16.4661 26.6636C16.5506 26.7902 16.5506 26.938 16.4661 27.1069Z" fill="#26394D"/>
</svg>
