<svg width="100" height="96" viewBox="0 0 100 96" fill="none" xmlns="http://www.w3.org/2000/svg">
<g clip-path="url(#clip0_14375_52042)">
<path d="M98 73.201H96V26.4154C96 23.6571 95.0556 21.3762 93.1667 19.5726C91.2778 17.7691 89 16.8673 86.3333 16.8673H80.3333V12.4116C80.3333 10.2898 79.6111 8.53929 78.1667 7.16013C76.7222 5.78096 75 5.09138 73 5.09138H48.3333C46.1111 5.09138 44.2778 5.78096 42.8333 7.16013C41.3889 8.53929 40.6667 10.2898 40.6667 12.4116V16.8673H13.6667C11 16.8673 8.72222 17.7691 6.83333 19.5726C4.94445 21.3762 4 23.6571 4 26.4154V73.201H2C1.33333 73.201 0.833333 73.4132 0.5 73.8375C0.166667 74.2619 0 74.6863 0 75.1106C0 79.3542 1.55556 82.9613 4.66667 85.9318C7.77778 88.9023 11.5556 90.3875 16 90.3875H41.3333C41.7778 90.3875 42.1667 90.2284 42.5 89.9101C42.8333 89.5919 43 89.1675 43 88.6371C43 88.1066 42.8333 87.6292 42.5 87.2048C42.1667 86.7805 41.7778 86.5683 41.3333 86.5683H16C13.1111 86.5683 10.5 85.6665 8.16667 83.863C5.83333 82.0595 4.44445 79.7786 4 77.0202H96C95.5556 79.7786 94.1667 82.0595 91.8333 83.863C89.5 85.6665 86.8889 86.5683 84 86.5683H58.6667C58.2222 86.5683 57.8333 86.7805 57.5 87.2048C57.1667 87.6292 57 88.1066 57 88.6371C57 89.1675 57.1667 89.5919 57.5 89.9101C57.8333 90.2284 58.2222 90.3875 58.6667 90.3875H84C88.4445 90.3875 92.2222 88.9023 95.3333 85.9318C98.4445 82.9613 100 79.3542 100 75.1106C100 74.6863 99.8333 74.2619 99.5 73.8375C99.1667 73.4132 98.6667 73.201 98 73.201ZM44.6667 12.4116C44.6667 11.3507 45 10.502 45.6667 9.86542C46.3333 9.22887 47.2222 8.91061 48.3333 8.91061H73C73.8889 8.91061 74.7222 9.22887 75.5 9.86542C76.2778 10.502 76.6667 11.3507 76.6667 12.4116V29.5981C76.6667 30.4468 76.2778 31.2425 75.5 31.9851C74.7222 32.7278 73.8889 33.0991 73 33.0991H54.6667C54 33.0991 53.5556 33.2052 53.3333 33.4173L50 36.2818V34.6904C50 34.2661 49.8333 33.8947 49.5 33.5765C49.1667 33.2582 48.6111 33.0991 47.8333 33.0991C47.0556 33.0991 46.3333 32.7278 45.6667 31.9851C45 31.2425 44.6667 30.4468 44.6667 29.5981V12.4116ZM7.66667 26.4154C7.66667 24.718 8.27778 23.3388 9.5 22.2779C10.7222 21.217 12.1111 20.6866 13.6667 20.6866H40.6667V24.5058H13.6667C13.2222 24.5058 12.7778 24.6649 12.3333 24.9832C11.8889 25.3015 11.6667 25.7789 11.6667 26.4154V73.201H7.66667V26.4154ZM23.6667 73.201V72.2462C23.6667 69.4879 24.6667 67.1008 26.6667 65.0851C28.6667 63.0694 31.1111 62.0616 34 62.0616H35V65.5625C35 66.1991 35.1667 66.6765 35.5 66.9947C35.8333 67.313 36.2778 67.4721 36.8333 67.4721C37.3889 67.4721 37.8333 67.313 38.1667 66.9947C38.5 66.6765 38.6667 66.1991 38.6667 65.5625V62.0616H39.6667C42.5556 62.0616 45 63.0694 47 65.0851C49 67.1008 50 69.4879 50 72.2462V73.201H23.6667ZM42 53.4683C42 54.7414 41.5 55.8553 40.5 56.8101C39.5 57.7649 38.2778 58.2423 36.8333 58.2423C35.3889 58.2423 34.1667 57.7649 33.1667 56.8101C32.1667 55.8553 31.6667 54.7414 31.6667 53.4683V52.1952C31.6667 50.9221 32.1667 49.8082 33.1667 48.8534C34.1667 47.8986 35.3889 47.4212 36.8333 47.4212C38.2778 47.4212 39.5 47.8986 40.5 48.8534C41.5 49.8082 42 50.9221 42 52.1952V53.4683ZM54 73.201V72.2462C54 69.0635 53.0556 66.2521 51.1667 63.8121C49.2778 61.372 46.7778 59.7276 43.6667 58.8789C45 57.3936 45.6667 55.5901 45.6667 53.4683V52.1952C45.6667 49.8613 44.8333 47.8455 43.1667 46.1481C41.5 44.4507 39.3889 43.602 36.8333 43.602C34.2778 43.602 32.1667 44.4507 30.5 46.1481C28.8333 47.8455 28 49.8613 28 52.1952V53.4683C28 55.5901 28.6667 57.3936 30 58.8789C26.8889 59.7276 24.3889 61.372 22.5 63.8121C20.6111 66.2521 19.6667 69.0635 19.6667 72.2462V73.201H15.6667V28.0068H40.6667V29.5981C40.6667 31.0834 41.1667 32.5156 42.1667 33.8947C43.1667 35.2739 44.5556 36.1757 46.3333 36.6V41.0558C46.3333 41.6923 46.6667 42.2228 47.3333 42.6471H48.3333C48.7778 42.6471 49.2222 42.5411 49.6667 42.3289L55.3333 36.6H73C75 36.6 76.7222 35.9104 78.1667 34.5313C79.6111 33.1521 80.3333 31.5077 80.3333 29.5981V28.0068H84.3333V73.201H54ZM88.3333 73.201V26.4154C88.3333 25.7789 88.1111 25.3015 87.6667 24.9832C87.2222 24.6649 86.7778 24.5058 86.3333 24.5058H80.3333V20.6866H86.3333C87.8889 20.6866 89.2778 21.217 90.5 22.2779C91.7222 23.3388 92.3333 24.718 92.3333 26.4154V73.201H88.3333ZM54.3333 79.8846H45.6667C45.2222 79.8846 44.7778 80.0968 44.3333 80.5212C43.8889 80.9455 43.6667 81.423 43.6667 81.9534C43.6667 82.4838 43.8889 82.9082 44.3333 83.2265C44.7778 83.5447 45.2222 83.7039 45.6667 83.7039H54.3333C55 83.7039 55.5 83.5447 55.8333 83.2265C56.1667 82.9082 56.3333 82.4838 56.3333 81.9534C56.3333 81.423 56.1667 80.9455 55.8333 80.5212C55.5 80.0968 55 79.8846 54.3333 79.8846ZM56 28.0068C56.6667 28.4311 57.3333 28.6433 58 28.6433C58.6667 28.6433 59.2222 28.4311 59.6667 28.0068L67 23.8693C68.3333 23.2327 69 22.2249 69 20.8457C69 19.4665 68.3333 18.4587 67 17.8221L59.6667 13.6846C58.5556 13.0481 57.3333 13.0481 56 13.6846C54.6667 14.3212 54 15.3821 54 16.8673V24.8241C54 26.3093 54.6667 27.3702 56 28.0068ZM58 17.1856L65 21.0048L58 24.5058V17.1856ZM50 86.5683C49.5556 86.5683 49.1111 86.7805 48.6667 87.2048C48.2222 87.6292 48 88.1066 48 88.6371C48 89.1675 48.2222 89.5919 48.6667 89.9101C49.1111 90.2284 49.5556 90.3875 50 90.3875C50.4445 90.3875 50.8889 90.2284 51.3333 89.9101C51.7778 89.5919 52 89.1675 52 88.6371C52 88.1066 51.7778 87.6292 51.3333 87.2048C50.8889 86.7805 50.4445 86.5683 50 86.5683Z" fill="white"/>
</g>
<defs>
<clipPath id="clip0_14375_52042">
<rect width="100" height="95.4808" fill="white" transform="matrix(1 0 0 -1 0 95.4808)"/>
</clipPath>
</defs>
</svg>
