<svg width="898" height="298" viewBox="0 0 898 298" fill="none" xmlns="http://www.w3.org/2000/svg">
<g clip-path="url(#clip0_20351_24187)">
<path d="M102.35 175.72C99.86 170.55 96.59 166.34 92.53 163.09C88.47 159.87 84.02 157.18 79.2 155.05C74.35 152.89 69.47 151.02 64.49 149.35C59.55 147.68 55.02 145.93 50.96 144.09C46.9 142.22 43.62 140.08 41.14 137.66C38.65 135.26 37.43 132.05 37.43 128.07C37.43 123.51 39.3 119.97 43.01 117.4C46.72 114.86 51.84 113.57 58.3 113.57C63.94 113.57 69.03 114.68 73.5 116.9C77.97 119.09 82.36 122.54 86.63 127.22L105.25 108.63C100.28 102.7 93.76 97.87 85.69 94.16C77.62 90.42 68.65 88.58 58.71 88.58C49.36 88.58 40.94 90.22 33.48 93.52C26.05 96.85 20.18 101.59 15.91 107.79C11.64 114.02 9.51 121.53 9.51 130.33C9.51 137.93 10.71 144.13 13.13 148.95C15.53 153.77 18.8 157.78 22.95 160.94C27.07 164.13 31.55 166.73 36.37 168.8C41.22 170.88 46.08 172.69 50.96 174.27C55.84 175.88 60.34 177.57 64.41 179.44C68.47 181.31 71.75 183.62 74.23 186.37C76.72 189.12 77.94 192.71 77.94 197.13C77.94 202.22 75.81 206.22 71.54 209.12C67.27 212.01 61.48 213.48 54.18 213.48C46.02 213.48 39.18 211.9 33.6 208.8C28.02 205.7 23.02 201.35 18.6 195.67L0 214.28C6.75 222.41 14.3 228.49 22.63 232.46C30.96 236.47 40.93 238.45 52.51 238.45C69.2 238.45 82.3 234.56 91.8 226.79C101.3 218.98 106.07 208.34 106.07 194.84C106.07 187.27 104.84 180.89 102.36 175.72" fill="#177DE6"/>
<path d="M313.65 147.65H285.53V236.21H313.65V147.65Z" fill="#177DE6"/>
<path d="M347.56 236.21H375.68V90.83H347.56V236.21ZM406.47 160.08L468.91 90.83H433.77L375.68 156.55L372.35 160.32L375.68 164.33L435.43 236.22H470.98L406.46 160.1L406.47 160.08Z" fill="#177DE6"/>
<path d="M585.73 175.72C583.24 170.55 579.97 166.34 575.91 163.09C571.85 159.87 567.4 157.18 562.58 155.05C557.76 152.89 552.87 151.02 547.9 149.35C542.93 147.68 538.43 145.93 534.37 144.09C530.31 142.22 527.03 140.08 524.55 137.66C522.07 135.26 520.84 132.05 520.84 128.07C520.84 123.51 522.68 119.97 526.39 117.4C530.13 114.86 535.22 113.57 541.71 113.57C547.35 113.57 552.41 114.68 556.91 116.9C561.38 119.09 565.77 122.54 570.04 127.22L588.63 108.63C583.69 102.7 577.17 97.87 569.1 94.16C561.03 90.42 552.03 88.58 542.12 88.58C532.74 88.58 524.35 90.22 516.89 93.52C509.44 96.85 503.59 101.59 499.32 107.79C495.05 114.02 492.92 121.53 492.92 130.33C492.92 137.93 494.12 144.13 496.51 148.95C498.94 153.77 502.21 157.78 506.33 160.94C510.48 164.13 514.95 166.73 519.78 168.8C524.6 170.88 529.46 172.69 534.37 174.27C539.25 175.88 543.72 177.57 547.79 179.44C551.88 181.31 555.16 183.62 557.61 186.37C560.09 189.12 561.35 192.71 561.35 197.13C561.35 202.22 559.22 206.22 554.95 209.12C550.65 212.01 544.86 213.48 537.56 213.48C529.43 213.48 522.59 211.9 517.01 208.8C511.43 205.7 506.43 201.35 502.01 195.67L483.39 214.29C490.14 222.42 497.69 228.5 506.05 232.47C514.38 236.48 524.35 238.46 535.93 238.46C552.59 238.46 565.69 234.57 575.22 226.8C584.72 218.99 589.49 208.35 589.49 194.85C589.49 187.28 588.23 180.9 585.75 175.73" fill="#177DE6"/>
<path d="M615.72 236.21H643.84V90.83H615.72V236.21ZM633.7 173.53H714.77V148.74H633.7V173.53ZM706.9 236.21H735.02V90.83H706.9V236.21Z" fill="#177DE6"/>
<path d="M839.831 90.83H816.68L757.98 236.21H787.74L798.091 209.11L807.091 185.55L828.05 130.68L848.781 185.55L857.701 209.11L867.961 236.21H897.951L839.831 90.83ZM789.201 209.11H867.341V185.55H789.201V209.11Z" fill="#177DE6"/>
<path d="M158.92 104.51V236.47H134.71V95.1L158.55 104.29L158.92 104.51Z" fill="#FF660A"/>
<path d="M254.42 95.3V236.47H230.18V104.51L254.42 95.3Z" fill="#FF660A"/>
<path d="M194.55 191.58L140.98 160.84L152.64 140.56L194.55 164.61L236.46 140.56L248.12 160.84L194.55 191.58Z" fill="#FF660A"/>
<path d="M297.8 57.61C297.8 57.28 297.47 57.06 297.17 57.17L297.8 57.61Z" fill="#26394D"/>
<path d="M297.16 57.17L194.47 96.19C194.36 96.23 194.24 96.23 194.13 96.19L63.9703 45.97C63.5603 45.81 63.5703 45.23 63.9903 45.09L194.69 0.0300447C194.79 4.47016e-05 194.9 -0.0099553 194.99 0.0300447L325.15 44.56C325.56 44.7 325.58 45.27 325.18 45.43L302.72 54.89C302.55 54.96 302.43 55.13 302.43 55.32" fill="#26394D"/>
<path d="M304.18 114.44H295L290.2 50.82L306.82 49.16L304.18 114.44Z" fill="#26394D"/>
<path d="M637.8 262.49H643.46V296.96H637.8V262.49ZM641.69 296.96V291.79H650.75C653.11 291.79 655.19 291.28 656.98 290.26C658.77 289.24 660.16 287.82 661.17 286C662.17 284.18 662.67 282.07 662.67 279.67C662.67 277.27 662.16 275.22 661.14 273.42C660.12 271.61 658.72 270.2 656.93 269.19C655.14 268.17 653.08 267.66 650.75 267.66H641.69V262.49H650.9C653.39 262.49 655.71 262.93 657.84 263.8C659.97 264.67 661.84 265.88 663.43 267.44C665.02 269 666.26 270.82 667.15 272.9C668.04 274.99 668.48 277.26 668.48 279.72C668.48 282.18 668.04 284.42 667.15 286.52C666.26 288.62 665.03 290.45 663.46 292.01C661.89 293.57 660.03 294.78 657.9 295.65C655.77 296.52 653.47 296.95 651.01 296.95H641.7L641.69 296.96Z" fill="#26394D"/>
<path d="M684.09 262.49H689.75V296.96H684.09V262.49ZM687.98 262.49H707.04V267.66H687.98V262.49ZM687.98 276.87H705.61V281.84H687.98V276.87ZM687.98 291.79H707.28V296.96H687.98V291.79Z" fill="#26394D"/>
<path d="M732.59 297.45C729.86 297.45 727.55 296.96 725.65 295.97C723.75 294.99 722.04 293.54 720.53 291.64L724.37 287.8C725.32 289.18 726.45 290.25 727.77 291.02C729.08 291.79 730.76 292.18 732.79 292.18C734.69 292.18 736.21 291.79 737.35 291C738.48 290.21 739.05 289.13 739.05 287.75C739.05 286.6 738.75 285.67 738.16 284.94C737.57 284.22 736.79 283.62 735.82 283.14C734.85 282.66 733.78 282.24 732.62 281.86C731.46 281.48 730.29 281.06 729.12 280.58C727.95 280.1 726.89 279.51 725.92 278.78C724.95 278.06 724.17 277.12 723.58 275.97C722.99 274.82 722.69 273.36 722.69 271.59C722.69 269.55 723.19 267.82 724.19 266.4C725.19 264.97 726.54 263.88 728.25 263.13C729.96 262.37 731.86 262 733.96 262C736.23 262 738.25 262.44 740.04 263.33C741.83 264.22 743.28 265.35 744.4 266.73L740.56 270.57C739.58 269.46 738.55 268.63 737.48 268.08C736.41 267.54 735.19 267.27 733.81 267.27C732.1 267.27 730.77 267.61 729.8 268.3C728.83 268.99 728.35 269.96 728.35 271.2C728.35 272.25 728.65 273.1 729.24 273.74C729.83 274.38 730.61 274.92 731.58 275.37C732.55 275.81 733.61 276.23 734.78 276.63C735.95 277.02 737.11 277.47 738.28 277.96C739.44 278.45 740.51 279.08 741.48 279.86C742.45 280.63 743.23 281.62 743.82 282.84C744.41 284.06 744.71 285.58 744.71 287.42C744.71 290.51 743.62 292.95 741.44 294.76C739.26 296.57 736.31 297.47 732.6 297.47" fill="#26394D"/>
<path d="M765.87 262.49H760.21V296.96H765.87V262.49Z" fill="#26394D"/>
<path d="M798.771 297.45C796.411 297.45 794.17 296.99 792.07 296.07C789.97 295.15 788.13 293.88 786.55 292.25C784.97 290.63 783.731 288.74 782.831 286.59C781.931 284.44 781.48 282.13 781.48 279.67C781.48 277.21 781.931 274.91 782.831 272.77C783.731 270.64 784.98 268.76 786.57 267.13C788.16 265.51 790.03 264.24 792.18 263.34C794.33 262.44 796.651 261.98 799.151 261.98C801.871 261.98 804.4 262.51 806.73 263.56C809.06 264.61 811.021 266.1 812.591 268.04L808.75 271.88C807.73 270.44 806.37 269.33 804.66 268.56C802.95 267.79 801.111 267.4 799.141 267.4C796.781 267.4 794.7 267.92 792.91 268.95C791.12 269.98 789.73 271.42 788.75 273.26C787.77 275.1 787.271 277.23 787.271 279.66C787.271 282.09 787.771 284.23 788.771 286.09C789.771 287.94 791.121 289.4 792.831 290.45C794.541 291.5 796.481 292.03 798.641 292.03C800.941 292.03 802.92 291.61 804.57 290.77C806.23 289.93 807.501 288.69 808.391 287.03C809.281 285.37 809.72 283.33 809.72 280.9L813.271 283.46H798.55V278.29H815.591V279.08C815.591 283.18 814.861 286.6 813.401 289.32C811.941 292.05 809.94 294.08 807.42 295.43C804.89 296.78 802 297.45 798.75 297.45" fill="#26394D"/>
<path d="M831.07 296.96V262.49H835.01L836.73 268.99V296.96H831.07ZM854.96 296.96L834.33 270.02L835.02 262.49L855.65 289.43L854.96 296.96ZM854.96 296.96L853.24 290.9V262.49H858.9V296.96H854.96Z" fill="#26394D"/>
<path d="M885.83 297.45C883.1 297.45 880.79 296.96 878.89 295.97C876.99 294.99 875.28 293.54 873.77 291.64L877.609 287.8C878.559 289.18 879.7 290.25 881.01 291.02C882.32 291.79 884 292.18 886.03 292.18C887.93 292.18 889.45 291.79 890.59 291C891.72 290.21 892.289 289.13 892.289 287.75C892.289 286.6 891.99 285.67 891.4 284.94C890.81 284.22 890.03 283.62 889.06 283.14C888.09 282.66 887.019 282.24 885.859 281.86C884.689 281.48 883.529 281.06 882.359 280.58C881.189 280.1 880.129 279.51 879.159 278.78C878.189 278.06 877.41 277.12 876.82 275.97C876.23 274.82 875.93 273.36 875.93 271.59C875.93 269.55 876.43 267.82 877.43 266.4C878.43 264.97 879.79 263.88 881.49 263.13C883.2 262.37 885.1 262 887.2 262C889.46 262 891.49 262.44 893.28 263.33C895.07 264.22 896.52 265.35 897.64 266.73L893.799 270.57C892.819 269.46 891.789 268.63 890.719 268.08C889.649 267.53 888.429 267.27 887.049 267.27C885.339 267.27 883.999 267.61 883.039 268.3C882.069 268.99 881.59 269.96 881.59 271.2C881.59 272.25 881.889 273.1 882.479 273.74C883.069 274.38 883.85 274.92 884.82 275.37C885.79 275.81 886.85 276.23 888.02 276.63C889.19 277.02 890.35 277.47 891.52 277.96C892.69 278.45 893.749 279.08 894.719 279.86C895.689 280.63 896.47 281.62 897.06 282.84C897.65 284.06 897.95 285.58 897.95 287.42C897.95 290.51 896.86 292.95 894.68 294.76C892.5 296.57 889.55 297.47 885.84 297.47" fill="#26394D"/>
<path d="M299.59 141.04C307.355 141.04 313.65 134.745 313.65 126.98C313.65 119.215 307.355 112.92 299.59 112.92C291.825 112.92 285.53 119.215 285.53 126.98C285.53 134.745 291.825 141.04 299.59 141.04Z" fill="#26394D"/>
</g>
<defs>
<clipPath id="clip0_20351_24187">
<rect width="897.95" height="297.45" fill="white"/>
</clipPath>
</defs>
</svg>
