<svg width="38" height="38" viewBox="0 0 38 38" fill="none" xmlns="http://www.w3.org/2000/svg">
<g clip-path="url(#clip0_14375_31837)">
<path d="M32.6803 35.34C32.1736 32.8067 31.7092 30.4844 31.287 28.3733L31.0336 27.2333C30.7803 26.0511 30.147 25.2067 29.1336 24.7C28.8803 24.5311 28.627 24.4044 28.3736 24.32L24.067 22.8L22.6736 21.9133V20.7733C23.687 20.1822 24.4892 19.4011 25.0803 18.43C25.6714 17.4589 26.0514 16.4244 26.2203 15.3267C27.0648 15.3267 27.7192 15.01 28.1836 14.3767C28.6481 13.7433 28.7114 13.0467 28.3736 12.2867V7.85333C28.3736 6.41778 28.0359 5.23556 27.3603 4.30667C27.0225 3.8 26.5581 3.42 25.967 3.16667C24.7003 1.56222 22.9692 0.57 20.7736 0.189999C18.5781 -0.189999 16.5092 0.084446 14.567 1.01333C13.9759 1.35111 13.3848 1.77333 12.7936 2.28C12.7092 2.36444 12.6459 2.49111 12.6036 2.66C12.5614 2.82889 12.6036 2.95555 12.7303 3.04C12.857 3.12444 12.9836 3.18778 13.1103 3.23C13.237 3.27222 13.3848 3.20889 13.5536 3.04C14.7359 2.11111 16.087 1.52 17.607 1.26667C19.127 1.01333 20.5625 1.14 21.9136 1.64667C23.2648 2.15334 24.3625 2.91333 25.207 3.92667C25.2914 4.01111 25.3759 4.05333 25.4603 4.05333C25.7981 4.22222 26.0936 4.47556 26.347 4.81334C26.9381 5.57333 27.2336 6.58667 27.2336 7.85333V11.2733C26.8959 11.1889 26.5581 11.1467 26.2203 11.1467V9.24667C26.2203 9.07778 26.1359 8.90889 25.967 8.74C25.7981 8.57111 25.6292 8.44444 25.4603 8.36C24.7003 8.36 24.1092 7.98 23.687 7.22C23.5181 6.88222 23.2648 6.69222 22.927 6.65C22.5892 6.60778 22.2936 6.71333 22.0403 6.96667C20.8581 7.89556 19.5492 8.48667 18.1136 8.74C17.0159 8.99333 15.8759 9.03556 14.6936 8.86667C13.9336 8.78222 13.2581 8.95111 12.667 9.37333C12.0759 9.79556 11.7381 10.3867 11.6536 11.1467C11.2314 11.1467 10.8514 11.1889 10.5136 11.2733V10.64C10.5136 9.45778 10.5559 8.57111 10.6403 7.98C10.8936 6.88222 11.3159 5.86889 11.907 4.94C11.9914 4.77111 12.0125 4.62333 11.9703 4.49667C11.9281 4.37 11.8436 4.26445 11.717 4.18C11.5903 4.09555 11.4636 4.07444 11.337 4.11667C11.2103 4.15889 11.1048 4.22222 11.0203 4.30667C10.2603 5.40445 9.79587 6.58667 9.62698 7.85333C9.45809 8.61333 9.41587 9.62667 9.50031 10.8933L9.37365 12.2867C9.03587 13.0467 9.12031 13.7433 9.62698 14.3767C10.1336 15.01 10.8092 15.3267 11.6536 15.3267C11.8225 16.9311 12.4559 18.3244 13.5536 19.5067L13.6803 19.6333C14.187 20.14 14.7359 20.5622 15.327 20.9V21.9133L13.9336 22.8L10.8936 23.94C9.62698 24.3622 8.9092 24.6156 8.74031 24.7L8.61365 24.8267C7.7692 25.3333 7.22031 26.0511 6.96698 26.98L5.32031 35.34C5.32031 35.5933 5.32031 35.8467 5.32031 36.1C5.40476 36.6911 5.63698 37.1556 6.01698 37.4933C6.39698 37.8311 6.92476 38 7.60031 38H22.927C23.0959 38 23.2225 37.9367 23.307 37.81C23.3914 37.6833 23.4336 37.5567 23.4336 37.43C23.4336 37.3033 23.3914 37.1767 23.307 37.05C23.2225 36.9233 23.0959 36.86 22.927 36.86H11.527V31.7933C11.527 31.6244 11.4636 31.4978 11.337 31.4133C11.2103 31.3289 11.0836 31.2867 10.957 31.2867C10.8303 31.2867 10.7036 31.3289 10.577 31.4133C10.4503 31.4978 10.387 31.6244 10.387 31.7933V36.86H7.60031C6.67142 36.86 6.29142 36.4378 6.46031 35.5933L7.72698 29.0067C7.98031 27.8244 8.1492 27.1489 8.23365 26.98V26.8533C8.48698 26.2622 8.95142 25.7978 9.62698 25.46L12.0336 24.7L13.427 27.1067C13.427 27.2756 13.5114 27.3811 13.6803 27.4233C13.8492 27.4656 13.997 27.4444 14.1236 27.36C14.2503 27.2756 14.3348 27.17 14.377 27.0433C14.4192 26.9167 14.3981 26.7689 14.3136 26.6L13.047 24.32L13.9336 24.0667L18.367 32.3C18.5359 32.4689 18.747 32.5533 19.0003 32.5533C19.2536 32.5533 19.4225 32.4689 19.507 32.3L24.067 24.0667L24.9536 24.32L20.3936 32.68C20.0559 33.1867 19.5914 33.44 19.0003 33.44C18.4092 33.44 17.9448 33.1867 17.607 32.68L15.5803 28.88C15.4959 28.7956 15.3903 28.7322 15.2636 28.69C15.137 28.6478 14.9892 28.6478 14.8203 28.69C14.6514 28.7322 14.5459 28.8378 14.5036 29.0067C14.4614 29.1756 14.4825 29.3022 14.567 29.3867L16.5936 33.1867C16.9314 33.7778 17.417 34.1789 18.0503 34.39C18.6836 34.6011 19.317 34.6011 19.9503 34.39C20.5836 34.1789 21.0692 33.7778 21.407 33.1867L25.967 24.7L28.1203 25.46L29.007 25.84C29.4292 26.2622 29.7248 26.7267 29.8936 27.2333L31.5403 35.8467C31.6248 36.5222 31.2448 36.86 30.4003 36.86H27.6136V31.7933C27.6136 31.6244 27.5503 31.4978 27.4236 31.4133C27.297 31.3289 27.1703 31.2867 27.0436 31.2867C26.917 31.2867 26.7903 31.3289 26.6636 31.4133C26.537 31.4978 26.4736 31.6244 26.4736 31.7933V36.86H25.4603C25.2914 36.86 25.1648 36.9233 25.0803 37.05C24.9959 37.1767 24.9536 37.3033 24.9536 37.43C24.9536 37.5567 24.9959 37.6833 25.0803 37.81C25.1648 37.9367 25.2914 38 25.4603 38H30.4003C31.0759 38 31.6036 37.8311 31.9836 37.4933C32.3636 37.1556 32.5959 36.6911 32.6803 36.1C32.6803 35.8467 32.6803 35.5933 32.6803 35.34ZM26.2203 12.2867C26.5581 12.2022 26.8536 12.2656 27.107 12.4767C27.3603 12.6878 27.487 12.9411 27.487 13.2367C27.487 13.5322 27.3603 13.7644 27.107 13.9333C26.8536 14.1022 26.5581 14.1867 26.2203 14.1867V12.2867ZM11.527 14.1867C11.1892 14.1867 10.9148 14.1022 10.7036 13.9333C10.4925 13.7644 10.387 13.5322 10.387 13.2367C10.387 12.9411 10.4925 12.6878 10.7036 12.4767C10.9148 12.2656 11.1892 12.2022 11.527 12.2867V14.1867ZM14.567 10.0067C15.9181 10.1756 17.1848 10.1333 18.367 9.88C19.9714 9.54222 21.407 8.82445 22.6736 7.72667C23.2648 8.74 24.067 9.33111 25.0803 9.5V11.5267L24.447 11.9067C24.1936 11.4844 23.8136 11.2733 23.307 11.2733H20.7736C20.4359 11.2733 20.1614 11.3367 19.9503 11.4633C19.7392 11.59 19.5492 11.8222 19.3803 12.16H18.367C18.2825 11.8222 18.1136 11.59 17.8603 11.4633C17.607 11.3367 17.3536 11.2733 17.1003 11.2733H14.4403C13.9336 11.2733 13.5536 11.4844 13.3003 11.9067L12.667 11.5267C12.667 11.02 12.857 10.6189 13.237 10.3233C13.617 10.0278 14.0603 9.92222 14.567 10.0067ZM23.687 12.6667V13.8067C23.687 14.06 23.6025 14.2711 23.4336 14.44C23.2648 14.6089 23.0536 14.6933 22.8003 14.6933H21.2803C21.027 14.6933 20.8159 14.6089 20.647 14.44C20.4781 14.2711 20.3936 14.06 20.3936 13.8067V12.6667C20.3936 12.4133 20.5203 12.2867 20.7736 12.2867H23.307C23.5603 12.2867 23.687 12.4133 23.687 12.6667ZM17.3536 12.6667V13.8067C17.3536 14.06 17.2692 14.2711 17.1003 14.44C16.9314 14.6089 16.7203 14.6933 16.467 14.6933H15.0736C14.8203 14.6933 14.6092 14.6089 14.4403 14.44C14.2714 14.2711 14.187 14.06 14.187 13.8067V12.6667C14.187 12.4133 14.2714 12.2867 14.4403 12.2867H17.1003C17.2692 12.2867 17.3536 12.4133 17.3536 12.6667ZM14.187 18.62C13.5114 17.7756 13.047 16.8889 12.7936 15.96C12.7092 15.3689 12.667 14.5667 12.667 13.5533V12.7933L13.047 13.0467V13.8067C13.047 14.3133 13.237 14.7567 13.617 15.1367C13.997 15.5167 14.4825 15.7067 15.0736 15.7067H16.467C17.0581 15.7067 17.5436 15.5167 17.9236 15.1367C18.3036 14.7567 18.4936 14.3133 18.4936 13.8067V13.1733H19.2536V13.8067C19.2536 14.3133 19.4648 14.7567 19.887 15.1367C20.3092 15.5167 20.7736 15.7067 21.2803 15.7067H22.8003C23.307 15.7067 23.7503 15.5167 24.1303 15.1367C24.5103 14.7567 24.7003 14.3133 24.7003 13.8067V13.0467L25.0803 12.7933V14.44C25.0803 16.1289 24.4892 17.5856 23.307 18.81C22.1248 20.0344 20.647 20.6889 18.8736 20.7733C18.4514 20.7733 18.0292 20.7311 17.607 20.6467L17.227 20.52C16.0448 20.1822 15.0314 19.5489 14.187 18.62ZM19.0003 24.8267L16.467 21.9133V21.4067C17.6492 21.8289 18.8314 21.9556 20.0136 21.7867L20.7736 21.5333L21.5336 21.4067V21.9133L19.0003 24.8267ZM19.6336 26.7267L19.3803 27.2333H18.6203L18.367 26.7267L19.0003 26.3467L19.6336 26.7267ZM17.4803 28.2467L17.227 27.6133L17.4803 27.4867L17.7336 27.8667L17.4803 28.2467ZM16.5936 26.6L14.947 23.56L15.8336 22.9267L18.1136 25.5867L16.5936 26.6ZM19.0003 31.0333L18.2403 29.64L18.6203 28.3733H19.3803L19.7603 29.64L19.0003 31.0333ZM20.5203 28.2467L20.267 27.8667L20.5203 27.4867L20.7736 27.6133L20.5203 28.2467ZM21.407 26.6C20.9848 26.3467 20.4781 26.0089 19.887 25.5867L22.167 22.9267L23.0536 23.56L21.407 26.6Z" fill="#26394D"/>
</g>
<defs>
<clipPath id="clip0_14375_31837">
<rect width="38" height="38" fill="white" transform="matrix(1 0 0 -1 0 38)"/>
</clipPath>
</defs>
</svg>
